<?xml version="1.0" encoding="UTF-8" standalone="no"?>
<svg
   xmlns:dc="http://purl.org/dc/elements/1.1/"
   xmlns:cc="http://creativecommons.org/ns#"
   xmlns:rdf="http://www.w3.org/1999/02/22-rdf-syntax-ns#"
   xmlns:svg="http://www.w3.org/2000/svg"
   xmlns="http://www.w3.org/2000/svg"
   xmlns:sodipodi="http://sodipodi.sourceforge.net/DTD/sodipodi-0.dtd"
   xmlns:inkscape="http://www.inkscape.org/namespaces/inkscape"
   viewBox="0 0 100 100"
   version="1.1"
   id="svg6"
   sodipodi:docname="events.svg"
   width="100"
   height="100"
   inkscape:version="1.0.1 (3bc2e813f5, 2020-09-07)">
  <metadata
     id="metadata10">
    <rdf:RDF>
      <cc:Work
         rdf:about="">
        <dc:format>image/svg+xml</dc:format>
        <dc:type
           rdf:resource="http://purl.org/dc/dcmitype/StillImage" />
        <dc:title />
      </cc:Work>
    </rdf:RDF>
  </metadata>
  <sodipodi:namedview
     pagecolor="#ffffff"
     bordercolor="#666666"
     borderopacity="1"
     objecttolerance="10"
     gridtolerance="10"
     guidetolerance="10"
     inkscape:pageopacity="0"
     inkscape:pageshadow="2"
     inkscape:window-width="1920"
     inkscape:window-height="1013"
     id="namedview8"
     showgrid="false"
     fit-margin-top="0"
     fit-margin-left="0"
     fit-margin-right="0"
     fit-margin-bottom="0"
     inkscape:zoom="53"
     inkscape:cx="5.5000019"
     inkscape:cy="6"
     inkscape:window-x="0"
     inkscape:window-y="0"
     inkscape:window-maximized="1"
     inkscape:current-layer="svg6"
     inkscape:document-rotation="0" />
  <defs
     id="defs3051">
    <style
       type="text/css"
       id="current-color-scheme">
      .ColorScheme-Text {
        color:#232629;
      }
      </style>
  </defs>
  <path
     style="fill:#000000;fill-opacity:1;stroke:none;stroke-width:8.70387"
     d="M 50.000003,0 C 36.422462,0 23.937733,2.7422808 14.826008,8.300782 5.7142831,13.85928 -0.01152797,22.284318 1.742718e-5,33.479817 0.06365343,46.132151 8.8027989,62.45761 19.353705,75.797525 24.629159,82.467442 30.36135,88.392083 35.724439,92.708333 41.087347,97.024583 46.05031,99.76792 49.964493,100 h 0.03551 0.03551 C 53.949697,99.7675 58.91266,97.024583 64.275568,92.708333 69.638562,88.392083 75.37076,82.467442 80.646304,75.797525 91.197301,62.45761 99.935532,46.132151 99.999992,33.479817 100.00899,22.284318 94.285727,13.85928 85.174003,8.300782 76.062278,2.7422817 63.577454,0 50.000003,0 Z m 0,16.666667 8.327413,16.471354 18.821016,2.685546 L 63.441051,48.583984 66.548294,66.666667 49.733668,58.072917 32.830264,66.56901 36.168331,48.502604 22.602994,35.660808 41.477279,33.072917 Z"
     class="ColorScheme-Text"
     id="path4" />
</svg>
