<?xml version="1.0" encoding="UTF-8" standalone="no"?>
<svg
   xmlns:dc="http://purl.org/dc/elements/1.1/"
   xmlns:cc="http://creativecommons.org/ns#"
   xmlns:rdf="http://www.w3.org/1999/02/22-rdf-syntax-ns#"
   xmlns:svg="http://www.w3.org/2000/svg"
   xmlns="http://www.w3.org/2000/svg"
   xmlns:sodipodi="http://sodipodi.sourceforge.net/DTD/sodipodi-0.dtd"
   xmlns:inkscape="http://www.inkscape.org/namespaces/inkscape"
   viewBox="0 0 85.763062 100"
   version="1.1"
   id="svg6"
   sodipodi:docname="membres.svg"
   width="85.763062"
   height="100"
   inkscape:version="1.0.1 (3bc2e813f5, 2020-09-07)">
  <metadata
     id="metadata10">
    <rdf:RDF>
      <cc:Work
         rdf:about="">
        <dc:format>image/svg+xml</dc:format>
        <dc:type
           rdf:resource="http://purl.org/dc/dcmitype/StillImage" />
        <dc:title></dc:title>
      </cc:Work>
    </rdf:RDF>
  </metadata>
  <sodipodi:namedview
     pagecolor="#ffffff"
     bordercolor="#666666"
     borderopacity="1"
     objecttolerance="10"
     gridtolerance="10"
     guidetolerance="10"
     inkscape:pageopacity="0"
     inkscape:pageshadow="2"
     inkscape:window-width="1920"
     inkscape:window-height="1013"
     id="namedview8"
     showgrid="false"
     fit-margin-top="0"
     fit-margin-left="0"
     fit-margin-right="0"
     fit-margin-bottom="0"
     inkscape:zoom="3.7227216"
     inkscape:cx="2.6476435"
     inkscape:cy="55.776782"
     inkscape:window-x="0"
     inkscape:window-y="0"
     inkscape:window-maximized="1"
     inkscape:current-layer="svg6"
     inkscape:document-rotation="0" />
  <defs
     id="defs3051">
    <style
       type="text/css"
       id="current-color-scheme">
      .ColorScheme-Text {
        color:#232629;
      }
      </style>
  </defs>
  <path
     style="fill:#000000;fill-opacity:1;stroke:none;stroke-width:8.45381"
     d="M 42.880243,0 A 25.728146,25 0 0 0 17.152097,25 25.728146,25 0 0 0 42.880243,50 25.728146,25 0 0 0 68.60839,25 25.728146,25 0 0 0 42.880243,0 m 0,8.333333 A 17.152097,16.666667 0 0 1 60.03234,25 17.152097,16.666667 0 0 1 42.880243,41.666667 17.152097,16.666667 0 0 1 25.728146,25 17.152097,16.666667 0 0 1 42.880243,8.333333 m 0,50 A 42.880243,37.5 0 0 0 0,95.833333 42.880243,37.5 0 0 0 0.28472478,100 H 85.444887 a 42.880243,37.5 0 0 0 0.318172,-4.166667 42.880243,37.5 0 0 0 -42.880243,-37.5 m 4.29e-4,8.333334 a 34.304195,29.166667 0 0 1 33.918958,25 H 8.9656583 a 34.304195,29.166667 0 0 1 33.9189587,-25"
     class="ColorScheme-Text"
     id="path4" />
</svg>
