<?xml version="1.0" encoding="UTF-8" standalone="no"?>
<svg
   xmlns:dc="http://purl.org/dc/elements/1.1/"
   xmlns:cc="http://creativecommons.org/ns#"
   xmlns:rdf="http://www.w3.org/1999/02/22-rdf-syntax-ns#"
   xmlns:svg="http://www.w3.org/2000/svg"
   xmlns="http://www.w3.org/2000/svg"
   xmlns:sodipodi="http://sodipodi.sourceforge.net/DTD/sodipodi-0.dtd"
   xmlns:inkscape="http://www.inkscape.org/namespaces/inkscape"
   viewBox="0 0 100 99.999999"
   version="1.1"
   id="svg4"
   sodipodi:docname="allos.svg"
   width="100"
   height="100"
   inkscape:version="1.0.1 (3bc2e813f5, 2020-09-07)">
  <metadata
     id="metadata10">
    <rdf:RDF>
      <cc:Work
         rdf:about="">
        <dc:format>image/svg+xml</dc:format>
        <dc:type
           rdf:resource="http://purl.org/dc/dcmitype/StillImage" />
        <dc:title />
      </cc:Work>
    </rdf:RDF>
  </metadata>
  <defs
     id="defs8" />
  <sodipodi:namedview
     pagecolor="#ffffff"
     bordercolor="#666666"
     borderopacity="1"
     objecttolerance="10"
     gridtolerance="10"
     guidetolerance="10"
     inkscape:pageopacity="0"
     inkscape:pageshadow="2"
     inkscape:window-width="1920"
     inkscape:window-height="1013"
     id="namedview6"
     showgrid="false"
     fit-margin-top="0"
     fit-margin-left="0"
     fit-margin-right="0"
     fit-margin-bottom="0"
     inkscape:zoom="4.5318673"
     inkscape:cx="20.827303"
     inkscape:cy="82.710102"
     inkscape:window-x="0"
     inkscape:window-y="0"
     inkscape:window-maximized="1"
     inkscape:current-layer="svg4"
     inkscape:document-rotation="0" />
  <path
     style="stroke:none;stroke-width:4.167;stroke-miterlimit:4;stroke-dasharray:none;"
     d="m 49.404103,87.276452 c 11.35043,11.350429 27.246865,15.033898 41.709913,11.342096 l 6.921095,-6.921096 c 0,0 4.420999,-4.421 0,-8.837834 L 79.030225,63.854732 c -4.421001,-4.421 -8.837835,0 -8.837835,0 l -2.208417,2.208417 c -3.670972,3.670973 -9.587863,3.670973 -13.258835,0 L 33.936851,45.274863 c -3.670972,-3.670974 -3.670972,-9.587865 0,-13.258837 l 2.208417,-2.208417 c 0,0 4.421001,-4.421 0,-8.837834 L 17.140382,1.9648892 c -4.421001,-4.4210006 -8.8378349,0 -8.8378349,0 L 1.3814519,8.8859845 C -2.3103545,23.332364 1.3731219,39.228799 12.723548,50.595897 Z"
     class="ColorScheme-Text"
     id="path2" />
</svg>
