<svg id="Layer_1" enable-background="new 0 0 512.002 512.002" height="512" viewBox="0 0 512.002 512.002" width="512" xmlns="http://www.w3.org/2000/svg"><g><g><path d="m503.239 263.321-85.444-85.444c7.199-10.096 11.093-22.158 11.094-34.764 0-33.084-26.916-60-60.001-60-12.606 0-24.668 3.894-34.764 11.094l-85.443-85.444c-5.651-5.651-13.185-8.763-21.214-8.763s-15.563 3.112-21.213 8.763-8.763 13.185-8.763 21.213c0 5.738 1.597 11.219 4.567 15.945l-92.016 257.043-67.141 67.141c-11.149-5.31-24.92-3.364-34.138 5.854-5.651 5.651-8.763 13.185-8.763 21.214s3.112 15.563 8.763 21.213l84.853 84.853c5.651 5.65 13.185 8.763 21.213 8.763s15.563-3.112 21.213-8.763 8.763-13.185 8.763-21.213c0-4.555-1.004-8.949-2.902-12.931l61.651-61.651 49.497 49.497c5.651 5.65 13.185 8.763 21.213 8.763 8.029 0 15.563-3.112 21.213-8.763l70.711-70.71c11.234-11.235 11.672-29.232 1.326-41.002l98.567-35.285c4.726 2.97 10.207 4.567 15.945 4.567 8.029 0 15.563-3.112 21.213-8.763 5.651-5.65 8.763-13.184 8.763-21.213s-3.112-15.563-8.763-21.214zm-134.35-160.208c22.056 0 40 17.944 40 40 0 7.245-1.932 14.22-5.539 20.32l-54.781-54.781c6.099-3.608 13.074-5.539 20.32-5.539zm-162.742 278.638-75.896-75.896 68.796-192.179 28.618 28.618c1.953 1.953 4.512 2.929 7.071 2.929s5.119-.976 7.071-2.929c3.905-3.905 3.905-10.237 0-14.143l-35.304-35.304 10.916-30.493 232.229 232.229zm-84.247 107.346c-1.873 1.874-4.384 2.905-7.071 2.905s-5.198-1.031-7.071-2.905l-84.854-84.853c-1.872-1.873-2.904-4.384-2.904-7.071s1.031-5.198 2.905-7.071c3.899-3.899 10.243-3.898 14.142 0l84.853 84.853c1.874 1.873 2.905 4.384 2.905 7.071s-1.032 5.198-2.905 7.071zm7.071-35.356-70.71-70.71 60.44-60.44 70.711 70.711zm223.075-95.796c1.873 1.873 2.904 4.384 2.904 7.071s-1.031 5.198-2.904 7.071l-70.711 70.711c-1.873 1.873-4.384 2.904-7.071 2.904s-5.198-1.031-7.071-2.905l-45.403-45.403 124.968-44.736zm137.051-66.34c-3.898 3.899-10.243 3.899-14.142 0l-254.559-254.558c-3.899-3.899-3.899-10.243 0-14.142 1.873-1.874 4.384-2.905 7.071-2.905s5.198 1.032 7.071 2.905l254.559 254.558c1.874 1.874 2.905 4.385 2.905 7.072-.001 2.686-1.032 5.197-2.905 7.07z"/><path d="m436.282 85.719c2.559 0 5.119-.977 7.071-2.929l16.02-16.019c3.905-3.905 3.906-10.237 0-14.142-3.905-3.906-10.237-3.905-14.142 0l-16.02 16.019c-3.905 3.905-3.906 10.237 0 14.142 1.953 1.953 4.512 2.929 7.071 2.929z"/><path d="m390.969 60.71c.867.232 1.737.343 2.594.343 4.415 0 8.456-2.947 9.653-7.415l5.863-21.883c1.43-5.334-1.736-10.818-7.071-12.247-5.333-1.431-10.818 1.736-12.247 7.071l-5.863 21.883c-1.43 5.336 1.736 10.819 7.071 12.248z"/><path d="m334.562 53.64c1.197 4.468 5.237 7.414 9.653 7.414.856 0 1.728-.111 2.595-.343 5.334-1.429 8.5-6.913 7.071-12.248l-5.864-21.883c-1.429-5.334-6.915-8.503-12.248-7.071-5.334 1.429-8.5 6.913-7.071 12.248z"/><path d="m451.291 121.034c1.197 4.468 5.237 7.414 9.653 7.414.856 0 1.728-.111 2.595-.343l21.883-5.864c5.334-1.429 8.5-6.913 7.071-12.248-1.43-5.334-6.914-8.502-12.248-7.071l-21.883 5.864c-5.335 1.429-8.501 6.913-7.071 12.248z"/><path d="m485.421 163.985-21.883-5.863c-5.335-1.431-10.818 1.736-12.247 7.071-1.43 5.335 1.737 10.818 7.071 12.247l21.883 5.863c.867.232 1.737.343 2.594.343 4.415 0 8.456-2.947 9.653-7.415 1.43-5.334-1.736-10.817-7.071-12.246z"/><path d="m273.924 160.282c-3.731-4.07-10.058-4.347-14.129-.614-4.071 3.732-4.346 10.058-.614 14.129l.005.006c1.972 2.151 4.666 3.241 7.37 3.241 2.414 0 4.836-.87 6.756-2.63 4.072-3.732 4.344-10.06.612-14.132z"/></g></g></svg>