<?xml version="1.0" encoding="UTF-8" standalone="no"?>
<svg
   xmlns:dc="http://purl.org/dc/elements/1.1/"
   xmlns:cc="http://creativecommons.org/ns#"
   xmlns:rdf="http://www.w3.org/1999/02/22-rdf-syntax-ns#"
   xmlns:svg="http://www.w3.org/2000/svg"
   xmlns="http://www.w3.org/2000/svg"
   xmlns:sodipodi="http://sodipodi.sourceforge.net/DTD/sodipodi-0.dtd"
   xmlns:inkscape="http://www.inkscape.org/namespaces/inkscape"
   viewBox="0 0 24 24"
   alt="Énigme"
   version="1.1"
   id="svg6"
   sodipodi:docname="question.svg"
   inkscape:version="1.0.1 (3bc2e813f5, 2020-09-07)">
  <metadata
     id="metadata12">
    <rdf:RDF>
      <cc:Work
         rdf:about="">
        <dc:format>image/svg+xml</dc:format>
        <dc:type
           rdf:resource="http://purl.org/dc/dcmitype/StillImage" />
        <dc:title></dc:title>
      </cc:Work>
    </rdf:RDF>
  </metadata>
  <defs
     id="defs10" />
  <sodipodi:namedview
     pagecolor="#ffffff"
     bordercolor="#666666"
     borderopacity="1"
     objecttolerance="10"
     gridtolerance="10"
     guidetolerance="10"
     inkscape:pageopacity="0"
     inkscape:pageshadow="2"
     inkscape:window-width="1920"
     inkscape:window-height="1013"
     id="namedview8"
     showgrid="false"
     inkscape:zoom="24.98444"
     inkscape:cx="7.381128"
     inkscape:cy="12.937842"
     inkscape:window-x="0"
     inkscape:window-y="0"
     inkscape:window-maximized="1"
     inkscape:current-layer="svg6" />
  <g
     transform="translate(1,1)"
     id="g4">
    <path
       d="M 10.96875,3 C 9.21782,3 7.56187,3.4216019 6,4.2636719 L 6.7773438,6.0507812 C 7.5582637,5.6672613 8.2600456,5.3933025 8.8847656,5.2265625 c 0.63297,-0.16673 1.2779264,-0.25 1.9355464,-0.25 0.986441,0 1.743422,0.2202494 2.269532,0.6621094 0.5261,0.44187 0.789062,1.0750006 0.789062,1.9003906 0,0.44187 -0.0568,0.8305625 -0.171875,1.1640625 -0.11508,0.33348 -0.312307,0.66651 -0.591797,1 -0.27948,0.33349 -0.867671,0.883351 -1.763672,1.650391 C 10.251483,12.356846 9.10046,14.139 9,16 h 2 l -0.0059,-0.03125 c 0,-0.75868 0.131471,-1.367612 0.394531,-1.826172 0.27128,-0.46689 0.813133,-1.055002 1.626953,-1.763672 0.99467,-0.84207 1.657528,-1.47518 1.986328,-1.90039 0.33704,-0.4252 0.587553,-0.8743797 0.751953,-1.3496098 C 15.918406,8.6536762 16,8.1071944 16,7.4902344 16,6.0728944 15.55227,4.97119 14.65625,4.1875 13.76024,3.39546 12.53061,3 10.96875,3 Z M 9,17 v 2 h 2 v -2 z"
       id="path2" />
  </g>
</svg>
